<svg width="63" height="75" viewBox="0 0 63 75" fill="none" xmlns="http://www.w3.org/2000/svg">
<rect width="62.2478" height="74.5023" rx="22" fill="#4800E1"/>
<path d="M35.2156 49.5022C34.9542 49.5031 34.6958 49.4454 34.4596 49.3333C34.2234 49.2213 34.0153 49.0577 33.8506 48.8547L25.3981 38.3547C25.1407 38.0416 25 37.6488 25 37.2434C25 36.8381 25.1407 36.4453 25.3981 36.1322L34.1481 25.6322C34.4451 25.2748 34.872 25.0501 35.3347 25.0074C35.7975 24.9647 36.2582 25.1076 36.6156 25.4047C36.973 25.7017 37.1977 26.1286 37.2404 26.5913C37.2831 27.0541 37.1401 27.5148 36.8431 27.8722L29.0206 37.2522L36.5806 46.6322C36.7946 46.8891 36.9305 47.2019 36.9723 47.5336C37.0141 47.8653 36.96 48.202 36.8164 48.5039C36.6728 48.8059 36.4457 49.0603 36.162 49.2372C35.8783 49.4142 35.5499 49.5061 35.2156 49.5022Z" fill="white"/>
</svg>
