<svg width="77" height="77" viewBox="0 0 77 77" fill="none" xmlns="http://www.w3.org/2000/svg">
<path d="M54.542 9.62565H67.3753C68.2262 9.62565 69.0423 9.96367 69.644 10.5653C70.2456 11.167 70.5837 11.9831 70.5837 12.834V64.1673C70.5837 65.0182 70.2456 65.8343 69.644 66.436C69.0423 67.0376 68.2262 67.3756 67.3753 67.3756H9.62533C8.77442 67.3756 7.95837 67.0376 7.35669 66.436C6.75501 65.8343 6.41699 65.0182 6.41699 64.1673V12.834C6.41699 11.9831 6.75501 11.167 7.35669 10.5653C7.95837 9.96367 8.77442 9.62565 9.62533 9.62565H22.4587V3.20898H28.8753V9.62565H48.1253V3.20898H54.542V9.62565ZM12.8337 28.8757V60.959H64.167V28.8757H12.8337ZM19.2503 35.2923H25.667V41.709H19.2503V35.2923ZM35.292 35.2923H41.7087V41.709H35.292V35.2923ZM51.3337 35.2923H57.7503V41.709H51.3337V35.2923Z" fill="#4800E1"/>
</svg>
