<svg width="355" height="355" viewBox="0 0 355 355" fill="none" xmlns="http://www.w3.org/2000/svg">
<g clip-path="url(#clip0_241_305)">
<path d="M177.305 265.957C153.793 265.957 131.244 256.617 114.618 239.992C97.9926 223.366 88.6525 200.817 88.6525 177.305C88.6525 153.793 97.9926 131.244 114.618 114.618C131.244 97.9926 153.793 88.6525 177.305 88.6525C200.817 88.6525 223.366 97.9926 239.992 114.618C256.617 131.244 265.957 153.793 265.957 177.305C265.957 200.817 256.617 223.366 239.992 239.992C223.366 256.617 200.817 265.957 177.305 265.957ZM177.305 236.407C192.98 236.407 208.012 230.18 219.096 219.096C230.18 208.012 236.407 192.98 236.407 177.305C236.407 161.63 230.18 146.598 219.096 135.514C208.012 124.43 192.98 118.203 177.305 118.203C161.63 118.203 146.598 124.43 135.514 135.514C124.43 146.598 118.203 161.63 118.203 177.305C118.203 192.98 124.43 208.012 135.514 219.096C146.598 230.18 161.63 236.407 177.305 236.407V236.407ZM162.53 14.7754H192.08V59.1016H162.53V14.7754ZM162.53 295.508H192.08V339.835H162.53V295.508ZM51.9356 72.828L72.828 51.9356L104.167 83.2742L83.2742 104.167L51.9356 72.8428V72.828ZM250.443 271.336L271.336 250.443L302.674 281.782L281.782 302.674L250.443 271.336ZM281.782 51.9208L302.674 72.828L271.336 104.167L250.443 83.2742L281.782 51.9356V51.9208ZM83.2742 250.443L104.167 271.336L72.828 302.674L51.9356 281.782L83.2742 250.443V250.443ZM339.835 162.53V192.08H295.508V162.53H339.835ZM59.1016 162.53V192.08H14.7754V162.53H59.1016Z" fill="#FFE600"/>
</g>
<defs>
<clipPath id="clip0_241_305">
<rect width="354.61" height="354.61" fill="white"/>
</clipPath>
</defs>
</svg>
