<svg width="34" height="36" viewBox="0 0 34 36" fill="none" xmlns="http://www.w3.org/2000/svg">
<path d="M1.6731 17.967C3.00476 10.4987 9.36135 4.83911 17 4.83911C24.6387 4.83911 30.9938 10.4987 32.3269 17.967C30.9953 25.4354 24.6387 31.0949 17 31.0949C9.36135 31.0949 3.00618 25.4354 1.6731 17.967ZM17 25.2603C18.8786 25.2603 20.6803 24.4919 22.0087 23.1242C23.3371 21.7564 24.0833 19.9013 24.0833 17.967C24.0833 16.0327 23.3371 14.1777 22.0087 12.8099C20.6803 11.4421 18.8786 10.6737 17 10.6737C15.1214 10.6737 13.3197 11.4421 11.9913 12.8099C10.663 14.1777 9.91668 16.0327 9.91668 17.967C9.91668 19.9013 10.663 21.7564 11.9913 23.1242C13.3197 24.4919 15.1214 25.2603 17 25.2603ZM17 22.343C15.8728 22.343 14.7918 21.882 13.9948 21.0613C13.1978 20.2407 12.75 19.1276 12.75 17.967C12.75 16.8064 13.1978 15.6934 13.9948 14.8727C14.7918 14.0521 15.8728 13.5911 17 13.5911C18.1272 13.5911 19.2082 14.0521 20.0052 14.8727C20.8022 15.6934 21.25 16.8064 21.25 17.967C21.25 19.1276 20.8022 20.2407 20.0052 21.0613C19.2082 21.882 18.1272 22.343 17 22.343Z" fill="#6E6E6E"/>
</svg>
