<svg width="69" height="69" viewBox="0 0 69 69" fill="none" xmlns="http://www.w3.org/2000/svg">
<path d="M12.9942 17.0593L4.00403 8.07203L8.07216 4.00391L64.9943 60.9289L60.9262 64.9942L51.4099 55.4779C46.3534 58.6851 40.487 60.3836 34.4992 60.374C18.9972 60.374 6.09991 49.219 3.39453 34.499C4.63087 27.8023 7.99921 21.6849 12.997 17.0593H12.9942ZM42.4255 46.4935L38.2165 42.2845C36.6067 43.0548 34.7975 43.3067 33.0385 43.0055C31.2794 42.7044 29.6571 41.865 28.3952 40.603C27.1332 39.3411 26.2938 37.7188 25.9927 35.9597C25.6915 34.2007 25.9434 32.3915 26.7137 30.7817L22.5047 26.5727C20.6753 29.3369 19.8576 32.6485 20.1898 35.9466C20.522 39.2446 21.9839 42.3265 24.3277 44.6704C26.6716 47.0143 29.7536 48.4762 33.0516 48.8084C36.3497 49.1406 39.6612 48.3229 42.4255 46.4935V46.4935ZM22.9244 10.809C26.5095 9.40028 30.4167 8.62403 34.4992 8.62403C50.0012 8.62403 62.8984 19.779 65.6038 34.499C64.7228 39.2879 62.7427 43.8071 59.8193 47.701L48.7218 36.6035C49.0514 34.3829 48.8564 32.116 48.1523 29.9843C47.4482 27.8526 46.2547 25.9155 44.6673 24.3281C43.0798 22.7406 41.1427 21.5471 39.011 20.843C36.8793 20.1389 34.6124 19.9439 32.3918 20.2735L22.9244 10.8119V10.809Z" fill="#6E6E6E"/>
</svg>
