<svg width="38" height="38" viewBox="0 0 38 38" fill="none" xmlns="http://www.w3.org/2000/svg">
<g clip-path="url(#clip0_24_2307)">
<path d="M5.21693 11.8398C6.48733 9.3101 8.43623 7.18351 10.8458 5.69776C13.2554 4.212 16.0306 3.42562 18.8615 3.42651C22.9765 3.42651 26.4334 4.93816 29.0765 7.40413L24.6989 11.7833C23.1154 10.2702 21.103 9.49906 18.8615 9.49906C14.8838 9.49906 11.517 12.1864 10.3184 15.7945C10.013 16.7107 9.8389 17.6879 9.8389 18.6957C9.8389 19.7034 10.013 20.6807 10.3184 21.5968C11.5185 25.2065 14.8838 27.8923 18.8615 27.8923C20.9152 27.8923 22.6635 27.3503 24.0316 26.4341C24.8247 25.9119 25.5037 25.2343 26.0276 24.4422C26.5514 23.6502 26.9092 22.7601 27.0793 21.8259H18.8615V15.9197H33.242C33.4221 16.9184 33.5199 17.9597 33.5199 19.0423C33.5199 23.6933 31.8555 27.6083 28.9666 30.2651C26.4411 32.5983 22.9841 33.9649 18.8615 33.9649C16.8561 33.9657 14.8701 33.5713 13.0172 32.8042C11.1643 32.0371 9.48076 30.9124 8.06273 29.4944C6.6447 28.0764 5.52001 26.3928 4.75295 24.5399C3.98588 22.687 3.59148 20.7011 3.59229 18.6957C3.59229 16.2312 4.18168 13.9012 5.21693 11.8398Z" fill="white"/>
</g>
<defs>
<clipPath id="clip0_24_2307">
<rect width="36.646" height="36.646" fill="white" transform="translate(0.53833 0.372681)"/>
</clipPath>
</defs>
</svg>
