<svg width="244" height="57" viewBox="0 0 244 57" fill="none" xmlns="http://www.w3.org/2000/svg">
<path d="M22.8253 35.0746H29.0163V37.4983H19.822V19.1887H22.8253V35.0746ZM33.0559 21.0592C32.5115 21.0592 32.0548 20.8748 31.686 20.506C31.3172 20.1371 31.1328 19.6805 31.1328 19.136C31.1328 18.5916 31.3172 18.1349 31.686 17.7661C32.0548 17.3973 32.5115 17.2129 33.0559 17.2129C33.5828 17.2129 34.0307 17.3973 34.3995 17.7661C34.7683 18.1349 34.9528 18.5916 34.9528 19.136C34.9528 19.6805 34.7683 20.1371 34.3995 20.506C34.0307 20.8748 33.5828 21.0592 33.0559 21.0592ZM34.5312 22.9824V37.4983H31.5279V22.9824H34.5312ZM44.3228 22.7453C45.4469 22.7453 46.4392 22.9736 47.2998 23.4302C48.1779 23.8693 48.8629 24.4225 49.3547 25.0899V22.9824H52.3843V37.7354C52.3843 39.0702 52.1033 40.2557 51.5413 41.2919C50.9793 42.3457 50.1626 43.1712 49.0912 43.7683C48.0374 44.3655 46.7729 44.6641 45.2976 44.6641C43.3305 44.6641 41.6971 44.1986 40.3975 43.2678C39.0978 42.3545 38.3601 41.1075 38.1845 39.5268H41.1615C41.3898 40.282 41.8728 40.888 42.6104 41.3446C43.3656 41.8188 44.2614 42.0559 45.2976 42.0559C46.5094 42.0559 47.4842 41.6871 48.2219 40.9494C48.9771 40.2118 49.3547 39.1404 49.3547 37.7354V35.3117C48.8453 35.9966 48.1516 36.5762 47.2734 37.0504C46.4128 37.5071 45.4293 37.7354 44.3228 37.7354C43.0583 37.7354 41.8991 37.4193 40.8453 36.787C39.8091 36.1371 38.9836 35.2414 38.3689 34.0998C37.7718 32.9407 37.4732 31.6322 37.4732 30.1745C37.4732 28.7167 37.7718 27.4258 38.3689 26.3018C38.9836 25.1777 39.8091 24.3084 40.8453 23.6937C41.8991 23.0614 43.0583 22.7453 44.3228 22.7453ZM49.3547 30.2272C49.3547 29.2261 49.1439 28.3567 48.7224 27.619C48.3184 26.8814 47.7828 26.3194 47.1154 25.933C46.448 25.5466 45.7279 25.3534 44.9551 25.3534C44.1823 25.3534 43.4622 25.5466 42.7948 25.933C42.1274 26.3018 41.583 26.855 41.1615 27.5927C40.7575 28.3128 40.5555 29.1734 40.5555 30.1745C40.5555 31.1756 40.7575 32.0537 41.1615 32.8089C41.583 33.5641 42.1274 34.1437 42.7948 34.5477C43.4798 34.9341 44.1999 35.1273 44.9551 35.1273C45.7279 35.1273 46.448 34.9341 47.1154 34.5477C47.7828 34.1613 48.3184 33.5993 48.7224 32.8616C49.1439 32.1064 49.3547 31.2282 49.3547 30.2272ZM63.8373 22.7453C64.9437 22.7453 65.9273 22.9824 66.7879 23.4566C67.666 23.9308 68.351 24.6333 68.8428 25.5641C69.3521 26.495 69.6068 27.619 69.6068 28.9363V37.4983H66.6298V29.3841C66.6298 28.0844 66.3049 27.0921 65.6551 26.4072C65.0052 25.7046 64.1183 25.3534 62.9942 25.3534C61.8702 25.3534 60.9745 25.7046 60.3071 26.4072C59.6572 27.0921 59.3323 28.0844 59.3323 29.3841V37.4983H56.329V18.0032H59.3323V24.6684C59.8417 24.0537 60.4827 23.5795 61.2555 23.2458C62.0458 22.9121 62.9064 22.7453 63.8373 22.7453ZM76.9415 25.4324V33.4675C76.9415 34.012 77.0644 34.4072 77.3103 34.6531C77.5738 34.8814 78.0128 34.9955 78.6276 34.9955H80.4717V37.4983H78.1007C76.7483 37.4983 75.7121 37.1822 74.992 36.5499C74.2719 35.9176 73.9119 34.8902 73.9119 33.4675V25.4324H72.1994V22.9824H73.9119V19.3731H76.9415V22.9824H80.4717V25.4324H76.9415ZM109.368 19.1887V37.4983H106.364V24.9582L100.779 37.4983H98.6979L93.0865 24.9582V37.4983H90.0832V19.1887H93.3236L99.7517 33.5466L106.153 19.1887H109.368ZM119.611 37.7354C118.241 37.7354 117.003 37.428 115.897 36.8133C114.79 36.1811 113.921 35.3029 113.289 34.1789C112.656 33.0373 112.34 31.72 112.34 30.2272C112.34 28.7518 112.665 27.4434 113.315 26.3018C113.965 25.1602 114.852 24.282 115.976 23.6673C117.1 23.0526 118.356 22.7453 119.743 22.7453C121.13 22.7453 122.386 23.0526 123.51 23.6673C124.634 24.282 125.521 25.1602 126.171 26.3018C126.821 27.4434 127.146 28.7518 127.146 30.2272C127.146 31.7025 126.812 33.0109 126.145 34.1525C125.477 35.2941 124.564 36.1811 123.405 36.8133C122.263 37.428 120.999 37.7354 119.611 37.7354ZM119.611 35.1273C120.384 35.1273 121.104 34.9429 121.772 34.574C122.457 34.2052 123.01 33.652 123.431 32.9143C123.853 32.1767 124.064 31.2809 124.064 30.2272C124.064 29.1734 123.862 28.2864 123.458 27.5663C123.054 26.8287 122.518 26.2754 121.851 25.9066C121.183 25.5378 120.463 25.3534 119.69 25.3534C118.918 25.3534 118.197 25.5378 117.53 25.9066C116.88 26.2754 116.362 26.8287 115.976 27.5663C115.589 28.2864 115.396 29.1734 115.396 30.2272C115.396 31.7903 115.791 33.0021 116.582 33.8627C117.39 34.7058 118.399 35.1273 119.611 35.1273ZM129.114 30.1745C129.114 28.7167 129.412 27.4258 130.009 26.3018C130.624 25.1777 131.45 24.3084 132.486 23.6937C133.54 23.0614 134.708 22.7453 135.99 22.7453C136.938 22.7453 137.869 22.956 138.782 23.3775C139.713 23.7815 140.451 24.3259 140.995 25.0109V18.0032H144.025V37.4983H140.995V35.3117C140.503 36.0142 139.818 36.5938 138.94 37.0504C138.08 37.5071 137.087 37.7354 135.963 37.7354C134.699 37.7354 133.54 37.4193 132.486 36.787C131.45 36.1371 130.624 35.2414 130.009 34.0998C129.412 32.9407 129.114 31.6322 129.114 30.1745ZM140.995 30.2272C140.995 29.2261 140.784 28.3567 140.363 27.619C139.959 26.8814 139.423 26.3194 138.756 25.933C138.088 25.5466 137.368 25.3534 136.596 25.3534C135.823 25.3534 135.103 25.5466 134.435 25.933C133.768 26.3018 133.223 26.855 132.802 27.5927C132.398 28.3128 132.196 29.1734 132.196 30.1745C132.196 31.1756 132.398 32.0537 132.802 32.8089C133.223 33.5641 133.768 34.1437 134.435 34.5477C135.12 34.9341 135.84 35.1273 136.596 35.1273C137.368 35.1273 138.088 34.9341 138.756 34.5477C139.423 34.1613 139.959 33.5993 140.363 32.8616C140.784 32.1064 140.995 31.2282 140.995 30.2272ZM161.274 29.8847C161.274 30.4291 161.238 30.9209 161.168 31.36H150.077C150.165 32.5191 150.595 33.45 151.368 34.1525C152.141 34.855 153.089 35.2063 154.213 35.2063C155.829 35.2063 156.971 34.5301 157.638 33.1778H160.878C160.439 34.5126 159.64 35.6103 158.481 36.4708C157.339 37.3139 155.917 37.7354 154.213 37.7354C152.826 37.7354 151.579 37.428 150.472 36.8133C149.383 36.1811 148.523 35.3029 147.89 34.1789C147.276 33.0373 146.968 31.72 146.968 30.2272C146.968 28.7343 147.267 27.4258 147.864 26.3018C148.479 25.1602 149.331 24.282 150.42 23.6673C151.526 23.0526 152.791 22.7453 154.213 22.7453C155.583 22.7453 156.804 23.0438 157.875 23.641C158.946 24.2381 159.781 25.0812 160.378 26.1701C160.975 27.2414 161.274 28.4796 161.274 29.8847ZM158.139 28.9363C158.121 27.8298 157.726 26.9428 156.953 26.2754C156.18 25.608 155.223 25.2743 154.081 25.2743C153.045 25.2743 152.158 25.608 151.421 26.2754C150.683 26.9253 150.244 27.8122 150.103 28.9363H158.139Z" fill="white"/>
<path d="M206.992 37.7482C204.538 37.7482 202.186 36.7737 200.451 35.039C198.716 33.3043 197.742 30.9515 197.742 28.4982C197.742 26.045 198.716 23.6922 200.451 21.9575C202.186 20.2228 204.538 19.2482 206.992 19.2482C209.445 19.2482 211.798 20.2228 213.532 21.9575C215.267 23.6922 216.242 26.045 216.242 28.4982C216.242 30.9515 215.267 33.3043 213.532 35.039C211.798 36.7737 209.445 37.7482 206.992 37.7482ZM206.992 34.6649C208.627 34.6649 210.196 34.0152 211.352 32.8587C212.509 31.7023 213.158 30.1338 213.158 28.4982C213.158 26.8627 212.509 25.2942 211.352 24.1378C210.196 22.9813 208.627 22.3316 206.992 22.3316C205.356 22.3316 203.788 22.9813 202.631 24.1378C201.475 25.2942 200.825 26.8627 200.825 28.4982C200.825 30.1338 201.475 31.7023 202.631 32.8587C203.788 34.0152 205.356 34.6649 206.992 34.6649ZM205.45 11.5399H208.533V16.1649H205.45V11.5399ZM205.45 40.8316H208.533V45.4566H205.45V40.8316ZM193.91 17.5971L196.09 15.4172L199.36 18.6871L197.18 20.867L193.91 17.5987V17.5971ZM214.623 38.3094L216.803 36.1295L220.073 39.3994L217.893 41.5793L214.623 38.3094ZM217.893 15.4157L220.073 17.5971L216.803 20.867L214.623 18.6871L217.893 15.4172V15.4157ZM197.18 36.1295L199.36 38.3094L196.09 41.5793L193.91 39.3994L197.18 36.1295ZM223.95 26.9566V30.0399H219.325V26.9566H223.95ZM194.658 26.9566V30.0399H190.033V26.9566H194.658Z" fill="#FFE600"/>
<rect x="0.424915" y="0.424915" width="242.488" height="56.1468" rx="28.0734" stroke="#4800E1" stroke-width="0.849829"/>
</svg>
