<svg width="448" height="448" viewBox="0 0 448 448" fill="none" xmlns="http://www.w3.org/2000/svg">
<path d="M89.9586 281.619C103.016 288.345 117.295 292.371 131.943 293.459C146.591 294.547 161.307 292.673 175.215 287.95C189.123 283.226 201.937 275.75 212.893 265.967C223.849 256.183 232.722 244.294 238.983 231.007C245.244 217.72 248.764 203.308 249.335 188.631C249.905 173.954 247.513 159.312 242.302 145.58C237.091 131.847 229.167 119.305 219.004 108.701C208.84 98.0972 196.645 89.6491 183.145 83.8607C256.558 62.4026 334.894 101.596 361.111 174.538C388.359 250.348 349 333.873 273.204 361.116C200.262 387.333 120.168 351.871 89.9586 281.619Z" fill="#4800E1"/>
</svg>
