<svg width="241" height="57" viewBox="0 0 241 57" fill="none" xmlns="http://www.w3.org/2000/svg">
<path d="M25.8023 19.1887C27.7518 19.1887 29.4554 19.5663 30.9132 20.3215C32.3885 21.0592 33.5213 22.1305 34.3116 23.5356C35.1195 24.9231 35.5235 26.5477 35.5235 28.4094C35.5235 30.2711 35.1195 31.8869 34.3116 33.2568C33.5213 34.6267 32.3885 35.6805 30.9132 36.4182C29.4554 37.1382 27.7518 37.4983 25.8023 37.4983H19.822V19.1887H25.8023ZM25.8023 35.0482C27.945 35.0482 29.5872 34.4686 30.7288 33.3095C31.8704 32.1503 32.4412 30.5169 32.4412 28.4094C32.4412 26.2842 31.8704 24.6245 30.7288 23.4302C29.5872 22.2359 27.945 21.6388 25.8023 21.6388H22.8253V35.0482H25.8023ZM37.4989 30.1745C37.4989 28.7167 37.7975 27.4258 38.3947 26.3018C39.0094 25.1777 39.8348 24.3084 40.8711 23.6937C41.9248 23.0614 43.084 22.7453 44.3486 22.7453C45.4902 22.7453 46.4825 22.9736 47.3255 23.4302C48.1861 23.8693 48.8711 24.4225 49.3804 25.0899V22.9824H52.41V37.4983H49.3804V35.338C48.8711 36.023 48.1773 36.5938 47.2992 37.0504C46.421 37.5071 45.4199 37.7354 44.2959 37.7354C43.0489 37.7354 41.9073 37.4193 40.8711 36.787C39.8348 36.1371 39.0094 35.2414 38.3947 34.0998C37.7975 32.9407 37.4989 31.6322 37.4989 30.1745ZM49.3804 30.2272C49.3804 29.2261 49.1696 28.3567 48.7481 27.619C48.3442 26.8814 47.8085 26.3194 47.1411 25.933C46.4737 25.5466 45.7536 25.3534 44.9808 25.3534C44.2081 25.3534 43.488 25.5466 42.8206 25.933C42.1532 26.3018 41.6087 26.855 41.1872 27.5927C40.7832 28.3128 40.5813 29.1734 40.5813 30.1745C40.5813 31.1756 40.7832 32.0537 41.1872 32.8089C41.6087 33.5641 42.1532 34.1437 42.8206 34.5477C43.5055 34.9341 44.2256 35.1273 44.9808 35.1273C45.7536 35.1273 46.4737 34.9341 47.1411 34.5477C47.8085 34.1613 48.3442 33.5993 48.7481 32.8616C49.1696 32.1064 49.3804 31.2282 49.3804 30.2272ZM59.358 25.0899C59.7971 24.3523 60.3767 23.7815 61.0968 23.3775C61.8345 22.956 62.7038 22.7453 63.7049 22.7453V25.8539H62.9409C61.7642 25.8539 60.8685 26.1525 60.2538 26.7496C59.6566 27.3468 59.358 28.383 59.358 29.8583V37.4983H56.3548V22.9824H59.358V25.0899ZM72.2087 30.2535L78.9003 37.4983H74.8432L69.4689 31.2546V37.4983H66.4656V18.0032H69.4689V29.3314L74.7378 22.9824H78.9003L72.2087 30.2535ZM107.181 19.1887V37.4983H104.177V24.9582L98.5923 37.4983H96.5111L90.8997 24.9582V37.4983H87.8964V19.1887H91.1368L97.5649 33.5466L103.967 19.1887H107.181ZM117.424 37.7354C116.055 37.7354 114.816 37.428 113.71 36.8133C112.603 36.1811 111.734 35.3029 111.102 34.1789C110.469 33.0373 110.153 31.72 110.153 30.2272C110.153 28.7518 110.478 27.4434 111.128 26.3018C111.778 25.1602 112.665 24.282 113.789 23.6673C114.913 23.0526 116.169 22.7453 117.556 22.7453C118.944 22.7453 120.199 23.0526 121.323 23.6673C122.448 24.282 123.334 25.1602 123.984 26.3018C124.634 27.4434 124.959 28.7518 124.959 30.2272C124.959 31.7025 124.625 33.0109 123.958 34.1525C123.291 35.2941 122.377 36.1811 121.218 36.8133C120.077 37.428 118.812 37.7354 117.424 37.7354ZM117.424 35.1273C118.197 35.1273 118.917 34.9429 119.585 34.574C120.27 34.2052 120.823 33.652 121.244 32.9143C121.666 32.1767 121.877 31.2809 121.877 30.2272C121.877 29.1734 121.675 28.2864 121.271 27.5663C120.867 26.8287 120.331 26.2754 119.664 25.9066C118.996 25.5378 118.276 25.3534 117.504 25.3534C116.731 25.3534 116.011 25.5378 115.343 25.9066C114.693 26.2754 114.175 26.8287 113.789 27.5663C113.403 28.2864 113.209 29.1734 113.209 30.2272C113.209 31.7903 113.604 33.0021 114.395 33.8627C115.203 34.7058 116.213 35.1273 117.424 35.1273ZM126.927 30.1745C126.927 28.7167 127.225 27.4258 127.823 26.3018C128.437 25.1777 129.263 24.3084 130.299 23.6937C131.353 23.0614 132.521 22.7453 133.803 22.7453C134.751 22.7453 135.682 22.956 136.595 23.3775C137.526 23.7815 138.264 24.3259 138.808 25.0109V18.0032H141.838V37.4983H138.808V35.3117C138.317 36.0142 137.632 36.5938 136.753 37.0504C135.893 37.5071 134.901 37.7354 133.777 37.7354C132.512 37.7354 131.353 37.4193 130.299 36.787C129.263 36.1371 128.437 35.2414 127.823 34.0998C127.225 32.9407 126.927 31.6322 126.927 30.1745ZM138.808 30.2272C138.808 29.2261 138.598 28.3567 138.176 27.619C137.772 26.8814 137.236 26.3194 136.569 25.933C135.902 25.5466 135.182 25.3534 134.409 25.3534C133.636 25.3534 132.916 25.5466 132.249 25.933C131.581 26.3018 131.037 26.855 130.615 27.5927C130.211 28.3128 130.009 29.1734 130.009 30.1745C130.009 31.1756 130.211 32.0537 130.615 32.8089C131.037 33.5641 131.581 34.1437 132.249 34.5477C132.933 34.9341 133.654 35.1273 134.409 35.1273C135.182 35.1273 135.902 34.9341 136.569 34.5477C137.236 34.1613 137.772 33.5993 138.176 32.8616C138.598 32.1064 138.808 31.2282 138.808 30.2272ZM159.087 29.8847C159.087 30.4291 159.052 30.9209 158.981 31.36H147.89C147.978 32.5191 148.408 33.45 149.181 34.1525C149.954 34.855 150.902 35.2063 152.026 35.2063C153.642 35.2063 154.784 34.5301 155.451 33.1778H158.692C158.253 34.5126 157.453 35.6103 156.294 36.4708C155.153 37.3139 153.73 37.7354 152.026 37.7354C150.639 37.7354 149.392 37.428 148.285 36.8133C147.197 36.1811 146.336 35.3029 145.704 34.1789C145.089 33.0373 144.782 31.72 144.782 30.2272C144.782 28.7343 145.08 27.4258 145.677 26.3018C146.292 25.1602 147.144 24.282 148.233 23.6673C149.339 23.0526 150.604 22.7453 152.026 22.7453C153.396 22.7453 154.617 23.0438 155.688 23.641C156.76 24.2381 157.594 25.0812 158.191 26.1701C158.788 27.2414 159.087 28.4796 159.087 29.8847ZM155.952 28.9363C155.934 27.8298 155.539 26.9428 154.766 26.2754C153.993 25.608 153.036 25.2743 151.895 25.2743C150.858 25.2743 149.972 25.608 149.234 26.2754C148.496 26.9253 148.057 27.8122 147.917 28.9363H155.952Z" fill="black"/>
<path d="M202.807 13.0819C201.671 14.1404 200.76 15.417 200.128 16.8353C199.496 18.2536 199.156 19.7847 199.129 21.3372C199.101 22.8897 199.387 24.4318 199.968 25.8715C200.55 27.3113 201.416 28.6191 202.514 29.7171C203.611 30.815 204.919 31.6806 206.359 32.2621C207.799 32.8437 209.341 33.1293 210.893 33.1019C212.446 33.0745 213.977 32.7347 215.395 32.1027C216.814 31.4707 218.09 30.5596 219.149 29.4236C218.658 37.4942 211.958 43.886 203.764 43.886C195.248 43.886 188.346 36.9839 188.346 28.4693C188.346 20.2753 194.738 13.5752 202.807 13.0819Z" fill="#4800E1"/>
<rect x="0.424915" y="0.424915" width="239.259" height="56.0887" rx="28.0444" stroke="#4800E1" stroke-width="0.849829"/>
</svg>
