<svg width="665" height="328" viewBox="0 0 665 328" fill="none" xmlns="http://www.w3.org/2000/svg">
<rect x="179.571" width="339.611" height="70.1748" rx="19.3538" fill="#6D28FF"/>
<path fill-rule="evenodd" clip-rule="evenodd" d="M231.273 30.2211H223.841L228.643 19.0146C228.802 18.6445 228.866 18.2409 228.831 17.8399C228.795 17.4388 228.66 17.0529 228.438 16.7168C228.217 16.3807 227.915 16.1048 227.561 15.9138C227.206 15.7229 226.81 15.623 226.407 15.6229H214.242C213.766 15.6225 213.3 15.762 212.902 16.0241C212.504 16.2862 212.192 16.6594 212.004 17.0973L204.705 34.1286C204.546 34.4988 204.482 34.9027 204.518 35.3039C204.553 35.7051 204.688 36.0912 204.91 36.4274C205.132 36.7636 205.434 37.0394 205.789 37.2302C206.144 37.4209 206.54 37.5206 206.943 37.5202H211.162L204.685 53.6439C203.712 56.0648 206.717 58.111 208.612 56.3203L220.836 44.7828L232.855 34.5033C234.573 33.0337 233.536 30.2211 231.273 30.2211ZM217.916 31.6955C217.758 32.0654 217.693 32.4688 217.729 32.8696C217.765 33.2705 217.899 33.6562 218.12 33.9923C218.342 34.3284 218.643 34.6043 218.997 34.7954C219.351 34.9865 219.747 35.0867 220.15 35.0872H224.685L217.58 41.1649L213.327 45.1794L217.018 35.9947C217.167 35.6256 217.222 35.2258 217.18 34.8302C217.138 34.4347 217 34.0554 216.777 33.7257C216.555 33.3961 216.255 33.126 215.904 32.9392C215.552 32.7523 215.161 32.6545 214.763 32.6542H210.634L215.846 20.489H222.716L217.916 31.6955Z" fill="#FFE600"/>
<path d="M269.016 26.9363V33.7536H277.036V36.8615H269.016V43.9795H278.039V47.0874H265.206V23.8284H278.039V26.9363H269.016ZM286.541 22.358V47.0874H282.731V22.358H286.541ZM308.419 37.4296C308.419 38.1202 308.374 38.744 308.285 39.301H294.216C294.327 40.7714 294.873 41.9522 295.853 42.8433C296.834 43.7345 298.037 44.18 299.462 44.18C301.512 44.18 302.96 43.3223 303.807 41.6068H307.917C307.36 43.3 306.347 44.6924 304.876 45.7841C303.428 46.8535 301.624 47.3882 299.462 47.3882C297.702 47.3882 296.121 46.9983 294.717 46.2185C293.336 45.4165 292.244 44.3026 291.442 42.8767C290.662 41.4286 290.273 39.7577 290.273 37.864C290.273 35.9703 290.651 34.3105 291.409 32.8847C292.188 31.4366 293.269 30.3226 294.65 29.5429C296.054 28.7631 297.658 28.3733 299.462 28.3733C301.2 28.3733 302.749 28.752 304.108 29.5095C305.467 30.267 306.525 31.3363 307.282 32.7176C308.04 34.0766 308.419 35.6473 308.419 37.4296ZM304.442 36.2265C304.42 34.823 303.918 33.6979 302.938 32.8513C301.958 32.0047 300.744 31.5814 299.295 31.5814C297.981 31.5814 296.856 32.0047 295.92 32.8513C294.984 33.6756 294.428 34.8007 294.249 36.2265H304.442ZM310.898 37.864C310.898 35.9703 311.276 34.3105 312.034 32.8847C312.814 31.4366 313.883 30.3226 315.242 29.5429C316.601 28.7631 318.161 28.3733 319.921 28.3733C322.149 28.3733 323.987 28.908 325.435 29.9773C326.905 31.0244 327.896 32.5282 328.409 34.4888H324.298C323.964 33.5753 323.43 32.8624 322.694 32.35C321.959 31.8376 321.035 31.5814 319.921 31.5814C318.361 31.5814 317.114 32.1384 316.178 33.2523C315.264 34.344 314.808 35.8812 314.808 37.864C314.808 39.8468 315.264 41.3952 316.178 42.5091C317.114 43.6231 318.361 44.18 319.921 44.18C322.126 44.18 323.586 43.2109 324.298 41.2727H328.409C327.874 43.1441 326.872 44.6367 325.401 45.7507C323.931 46.8423 322.104 47.3882 319.921 47.3882C318.161 47.3882 316.601 46.9983 315.242 46.2185C313.883 45.4165 312.814 44.3026 312.034 42.8767C311.276 41.4286 310.898 39.7577 310.898 37.864ZM336.65 31.7819V41.9744C336.65 42.6651 336.806 43.1663 337.118 43.4782C337.452 43.7679 338.009 43.9127 338.789 43.9127H341.128V47.0874H338.12C336.405 47.0874 335.091 46.6864 334.177 45.8844C333.264 45.0823 332.807 43.779 332.807 41.9744V31.7819H330.635V28.674H332.807V24.0957H336.65V28.674H341.128V31.7819H336.65ZM348.449 31.3475C349.006 30.4118 349.741 29.6877 350.655 29.1753C351.59 28.6406 352.693 28.3733 353.963 28.3733V32.3166H352.994C351.501 32.3166 350.365 32.6953 349.585 33.4528C348.828 34.2103 348.449 35.5247 348.449 37.3961V47.0874H344.639V28.674H348.449V31.3475ZM359.403 26.2345C358.712 26.2345 358.133 26.0006 357.665 25.5327C357.198 25.0649 356.964 24.4856 356.964 23.795C356.964 23.1043 357.198 22.5251 357.665 22.0572C358.133 21.5894 358.712 21.3555 359.403 21.3555C360.071 21.3555 360.64 21.5894 361.107 22.0572C361.575 22.5251 361.809 23.1043 361.809 23.795C361.809 24.4856 361.575 25.0649 361.107 25.5327C360.64 26.0006 360.071 26.2345 359.403 26.2345ZM361.275 28.674V47.0874H357.465V28.674H361.275ZM365.006 37.864C365.006 35.9703 365.385 34.3105 366.143 32.8847C366.922 31.4366 367.992 30.3226 369.351 29.5429C370.71 28.7631 372.269 28.3733 374.029 28.3733C376.257 28.3733 378.095 28.908 379.543 29.9773C381.014 31.0244 382.005 32.5282 382.517 34.4888H378.407C378.073 33.5753 377.538 32.8624 376.803 32.35C376.068 31.8376 375.143 31.5814 374.029 31.5814C372.47 31.5814 371.222 32.1384 370.286 33.2523C369.373 34.344 368.916 35.8812 368.916 37.864C368.916 39.8468 369.373 41.3952 370.286 42.5091C371.222 43.6231 372.47 44.18 374.029 44.18C376.235 44.18 377.694 43.2109 378.407 41.2727H382.517C381.983 43.1441 380.98 44.6367 379.51 45.7507C378.039 46.8423 376.213 47.3882 374.029 47.3882C372.269 47.3882 370.71 46.9983 369.351 46.2185C367.992 45.4165 366.922 44.3026 366.143 42.8767C365.385 41.4286 365.006 39.7577 365.006 37.864ZM388.252 26.2345C387.562 26.2345 386.982 26.0006 386.515 25.5327C386.047 25.0649 385.813 24.4856 385.813 23.795C385.813 23.1043 386.047 22.5251 386.515 22.0572C386.982 21.5894 387.562 21.3555 388.252 21.3555C388.921 21.3555 389.489 21.5894 389.957 22.0572C390.425 22.5251 390.658 23.1043 390.658 23.795C390.658 24.4856 390.425 25.0649 389.957 25.5327C389.489 26.0006 388.921 26.2345 388.252 26.2345ZM390.124 28.674V47.0874H386.314V28.674H390.124ZM399.57 31.7819V41.9744C399.57 42.6651 399.726 43.1663 400.038 43.4782C400.372 43.7679 400.929 43.9127 401.709 43.9127H404.048V47.0874H401.041C399.325 47.0874 398.011 46.6864 397.097 45.8844C396.184 45.0823 395.727 43.779 395.727 41.9744V31.7819H393.555V28.674H395.727V24.0957H399.57V28.674H404.048V31.7819H399.57ZM424.135 28.674L412.839 55.7427H408.896L412.639 46.7866L405.387 28.674H409.631L414.811 42.7096L420.191 28.674H424.135ZM448.122 35.1571C449.37 35.3799 450.428 36.0371 451.297 37.1288C452.166 38.2205 452.6 39.4569 452.6 40.8382C452.6 42.019 452.288 43.0884 451.664 44.0464C451.063 44.9821 450.183 45.7284 449.024 46.2854C447.866 46.8201 446.518 47.0874 444.981 47.0874H435.691V23.8618H444.546C446.128 23.8618 447.487 24.1292 448.623 24.6639C449.76 25.1985 450.617 25.9226 451.197 26.836C451.776 27.7272 452.066 28.7297 452.066 29.8437C452.066 31.1804 451.709 32.2943 450.996 33.1855C450.283 34.0766 449.325 34.7338 448.122 35.1571ZM439.5 33.6199H444.212C445.46 33.6199 446.429 33.3414 447.12 32.7845C447.833 32.2052 448.189 31.3809 448.189 30.3115C448.189 29.2644 447.833 28.4512 447.12 27.872C446.429 27.2705 445.46 26.9697 444.212 26.9697H439.5V33.6199ZM444.647 43.9795C445.939 43.9795 446.953 43.6676 447.688 43.0438C448.423 42.42 448.791 41.5511 448.791 40.4372C448.791 39.301 448.401 38.3987 447.621 37.7303C446.841 37.062 445.805 36.7278 444.513 36.7278H439.5V43.9795H444.647ZM458.678 26.2345C457.988 26.2345 457.409 26.0006 456.941 25.5327C456.473 25.0649 456.239 24.4856 456.239 23.795C456.239 23.1043 456.473 22.5251 456.941 22.0572C457.409 21.5894 457.988 21.3555 458.678 21.3555C459.347 21.3555 459.915 21.5894 460.383 22.0572C460.851 22.5251 461.084 23.1043 461.084 23.795C461.084 24.4856 460.851 25.0649 460.383 25.5327C459.915 26.0006 459.347 26.2345 458.678 26.2345ZM460.55 28.674V47.0874H456.74V28.674H460.55ZM469.361 22.358V47.0874H465.552V22.358H469.361ZM478.173 22.358V47.0874H474.363V22.358H478.173ZM489.858 47.3882C488.41 47.3882 487.107 47.132 485.948 46.6195C484.812 46.0849 483.91 45.3719 483.241 44.4808C482.573 43.5674 482.216 42.5537 482.172 41.4397H486.115C486.182 42.2195 486.55 42.8767 487.218 43.4114C487.909 43.9238 488.766 44.18 489.791 44.18C490.861 44.18 491.685 43.9795 492.264 43.5785C492.866 43.1552 493.166 42.6205 493.166 41.9744C493.166 41.2838 492.832 40.7714 492.164 40.4372C491.518 40.103 490.482 39.7354 489.056 39.3344C487.675 38.9557 486.55 38.5881 485.681 38.2316C484.812 37.8751 484.054 37.3293 483.408 36.5941C482.785 35.8589 482.473 34.8898 482.473 33.6867C482.473 32.7065 482.762 31.8153 483.341 31.0133C483.921 30.189 484.745 29.5429 485.814 29.075C486.906 28.6072 488.154 28.3733 489.557 28.3733C491.651 28.3733 493.333 28.908 494.603 29.9773C495.896 31.0244 496.586 32.4614 496.675 34.2883H492.866C492.799 33.464 492.465 32.8067 491.863 32.3166C491.262 31.8265 490.448 31.5814 489.424 31.5814C488.421 31.5814 487.652 31.7708 487.118 32.1495C486.583 32.5282 486.316 33.0295 486.316 33.6533C486.316 34.1435 486.494 34.5556 486.85 34.8898C487.207 35.224 487.641 35.4913 488.154 35.6918C488.666 35.8701 489.424 36.104 490.426 36.3936C491.763 36.7501 492.855 37.1177 493.701 37.4964C494.57 37.8529 495.316 38.3876 495.94 39.1005C496.564 39.8134 496.887 40.7602 496.909 41.941C496.909 42.9881 496.62 43.9238 496.04 44.7481C495.461 45.5724 494.637 46.2185 493.567 46.6864C492.52 47.1542 491.284 47.3882 489.858 47.3882Z" fill="white"/>
<rect y="83.7025" width="295.669" height="67.778" rx="18.7529" fill="#6D28FF"/>
<path d="M18.6636 109.734V117.594H20.6282V129.379H18.6636V135.273H50.0968L55.9906 135.275V135.273H57.9552V129.379H55.9906V117.594H57.9552V109.734L38.3094 97.9462L18.6636 109.734ZM26.5219 129.379V117.594H30.451V129.379H26.5219ZM36.3448 129.379V117.594H40.2739V129.379H36.3448ZM50.0968 129.379H46.1677V117.594H50.0968V129.379ZM42.2385 109.734C42.2384 110.25 42.1366 110.761 41.939 111.238C41.7414 111.714 41.4518 112.148 41.0867 112.512C40.7217 112.877 40.2884 113.167 39.8115 113.364C39.3346 113.561 38.8235 113.663 38.3074 113.663C37.7913 113.663 37.2803 113.561 36.8035 113.363C36.3267 113.166 35.8935 112.876 35.5287 112.511C35.1638 112.146 34.8744 111.713 34.677 111.236C34.4796 110.759 34.3781 110.248 34.3782 109.732C34.3785 108.689 34.7928 107.69 35.5301 106.953C36.2673 106.216 37.267 105.802 38.3094 105.803C39.3517 105.803 40.3512 106.217 41.0881 106.954C41.825 107.692 42.2388 108.691 42.2385 109.734Z" fill="#FFE600"/>
<path d="M86.6678 110V116.606H94.4391V119.617H86.6678V126.514H95.4105V129.525H82.9764V106.988H95.4105V110H86.6678ZM107.599 120.491L113.363 129.525H109.186L105.332 123.47L101.706 129.525H97.8525L103.616 120.75L97.8525 111.684H102.03L105.883 117.739L109.51 111.684H113.363L107.599 120.491ZM119.807 114.307C120.433 113.486 121.286 112.795 122.365 112.234C123.445 111.673 124.664 111.392 126.024 111.392C127.579 111.392 128.993 111.781 130.266 112.558C131.561 113.314 132.576 114.382 133.31 115.764C134.044 117.145 134.411 118.732 134.411 120.524C134.411 122.315 134.044 123.924 133.31 125.348C132.576 126.751 131.561 127.852 130.266 128.651C128.993 129.428 127.579 129.817 126.024 129.817C124.664 129.817 123.456 129.547 122.398 129.007C121.34 128.446 120.477 127.755 119.807 126.935V138.009H116.116V111.684H119.807V114.307ZM130.655 120.524C130.655 119.293 130.396 118.235 129.878 117.35C129.381 116.444 128.712 115.764 127.87 115.31C127.05 114.835 126.165 114.598 125.215 114.598C124.287 114.598 123.402 114.835 122.56 115.31C121.739 115.785 121.07 116.476 120.552 117.383C120.056 118.289 119.807 119.358 119.807 120.588C119.807 121.819 120.056 122.898 120.552 123.826C121.07 124.733 121.739 125.424 122.56 125.899C123.402 126.374 124.287 126.611 125.215 126.611C126.165 126.611 127.05 126.374 127.87 125.899C128.712 125.402 129.381 124.69 129.878 123.762C130.396 122.833 130.655 121.754 130.655 120.524ZM141.753 114.274C142.292 113.367 143.005 112.666 143.89 112.169C144.797 111.651 145.865 111.392 147.096 111.392V115.213H146.157C144.71 115.213 143.609 115.58 142.854 116.314C142.12 117.048 141.753 118.322 141.753 120.135V129.525H138.061V111.684H141.753V114.274ZM166.841 120.167C166.841 120.837 166.798 121.441 166.711 121.981H153.079C153.187 123.405 153.716 124.55 154.666 125.413C155.616 126.277 156.781 126.708 158.163 126.708C160.149 126.708 161.552 125.877 162.372 124.215H166.355C165.816 125.856 164.833 127.205 163.409 128.263C162.005 129.299 160.257 129.817 158.163 129.817C156.458 129.817 154.925 129.439 153.565 128.683C152.226 127.906 151.169 126.827 150.392 125.445C149.636 124.042 149.258 122.423 149.258 120.588C149.258 118.753 149.625 117.145 150.359 115.764C151.115 114.36 152.162 113.281 153.5 112.526C154.86 111.77 156.414 111.392 158.163 111.392C159.847 111.392 161.347 111.759 162.664 112.493C163.981 113.227 165.006 114.263 165.74 115.602C166.474 116.919 166.841 118.44 166.841 120.167ZM162.988 119.002C162.966 117.642 162.48 116.552 161.53 115.731C160.581 114.911 159.404 114.501 158.001 114.501C156.727 114.501 155.637 114.911 154.731 115.731C153.824 116.53 153.284 117.62 153.112 119.002H162.988ZM176.95 129.817C175.547 129.817 174.284 129.569 173.161 129.072C172.06 128.554 171.186 127.863 170.538 127C169.891 126.115 169.545 125.132 169.502 124.053H173.323C173.388 124.809 173.744 125.445 174.392 125.964C175.061 126.46 175.892 126.708 176.885 126.708C177.921 126.708 178.72 126.514 179.281 126.125C179.864 125.715 180.155 125.197 180.155 124.571C180.155 123.902 179.832 123.405 179.184 123.082C178.558 122.758 177.554 122.402 176.173 122.013C174.834 121.646 173.744 121.29 172.902 120.945C172.06 120.599 171.326 120.07 170.7 119.358C170.096 118.646 169.794 117.706 169.794 116.541C169.794 115.591 170.074 114.727 170.636 113.95C171.197 113.152 171.995 112.526 173.032 112.072C174.089 111.619 175.298 111.392 176.658 111.392C178.687 111.392 180.317 111.91 181.548 112.947C182.8 113.961 183.469 115.353 183.555 117.124H179.864C179.799 116.325 179.475 115.688 178.893 115.213C178.31 114.738 177.522 114.501 176.529 114.501C175.557 114.501 174.813 114.684 174.295 115.051C173.776 115.418 173.517 115.904 173.517 116.508C173.517 116.983 173.69 117.383 174.035 117.706C174.381 118.03 174.802 118.289 175.298 118.484C175.795 118.656 176.529 118.883 177.5 119.164C178.795 119.509 179.853 119.865 180.673 120.232C181.515 120.578 182.239 121.096 182.843 121.786C183.447 122.477 183.76 123.395 183.782 124.539C183.782 125.553 183.501 126.46 182.94 127.259C182.379 128.057 181.58 128.683 180.544 129.137C179.529 129.59 178.331 129.817 176.95 129.817ZM194.247 129.817C192.844 129.817 191.581 129.569 190.458 129.072C189.357 128.554 188.483 127.863 187.835 127C187.188 126.115 186.842 125.132 186.799 124.053H190.62C190.685 124.809 191.041 125.445 191.689 125.964C192.358 126.46 193.189 126.708 194.182 126.708C195.218 126.708 196.017 126.514 196.578 126.125C197.161 125.715 197.452 125.197 197.452 124.571C197.452 123.902 197.129 123.405 196.481 123.082C195.855 122.758 194.851 122.402 193.47 122.013C192.131 121.646 191.041 121.29 190.199 120.945C189.357 120.599 188.623 120.07 187.997 119.358C187.393 118.646 187.091 117.706 187.091 116.541C187.091 115.591 187.371 114.727 187.933 113.95C188.494 113.152 189.293 112.526 190.329 112.072C191.386 111.619 192.595 111.392 193.955 111.392C195.985 111.392 197.614 111.91 198.845 112.947C200.097 113.961 200.766 115.353 200.852 117.124H197.161C197.096 116.325 196.772 115.688 196.19 115.213C195.607 114.738 194.819 114.501 193.826 114.501C192.854 114.501 192.11 114.684 191.592 115.051C191.073 115.418 190.814 115.904 190.814 116.508C190.814 116.983 190.987 117.383 191.333 117.706C191.678 118.03 192.099 118.289 192.595 118.484C193.092 118.656 193.826 118.883 194.797 119.164C196.092 119.509 197.15 119.865 197.971 120.232C198.812 120.578 199.536 121.096 200.14 121.786C200.744 122.477 201.057 123.395 201.079 124.539C201.079 125.553 200.798 126.46 200.237 127.259C199.676 128.057 198.877 128.683 197.841 129.137C196.826 129.59 195.628 129.817 194.247 129.817ZM220.829 107.021C223.226 107.021 225.32 107.485 227.111 108.413C228.925 109.32 230.317 110.637 231.288 112.364C232.281 114.069 232.778 116.066 232.778 118.354C232.778 120.642 232.281 122.628 231.288 124.312C230.317 125.996 228.925 127.291 227.111 128.198C225.32 129.083 223.226 129.525 220.829 129.525H213.479V107.021H220.829ZM220.829 126.514C223.463 126.514 225.481 125.802 226.885 124.377C228.288 122.952 228.989 120.945 228.989 118.354C228.989 115.742 228.288 113.702 226.885 112.234C225.481 110.766 223.463 110.032 220.829 110.032H217.17V126.514H220.829ZM260.139 107.021V129.525H256.448V114.112L249.583 129.525H247.025L240.128 114.112V129.525H236.436V107.021H240.419L248.32 124.668L256.189 107.021H260.139ZM279.53 107.021V110.032H273.539V129.525H269.848V110.032H263.825V107.021H279.53Z" fill="white"/>
<rect x="96.4746" y="166.6" width="199.575" height="65.9961" rx="18.2599" fill="#4800E1"/>
<g clip-path="url(#clip0_29_304)">
<path d="M134.827 207.193V204.184C133.237 203.331 131.456 202.873 129.566 202.873H122.647C116.115 202.873 110.822 208.172 110.822 214.706C110.822 216.009 111.881 217.067 113.187 217.067H139.028C139.837 217.067 140.517 216.634 140.943 216.014L136.737 211.812C135.503 210.577 134.827 208.94 134.827 207.193ZM126.107 199.598C130.931 199.598 134.841 195.688 134.841 190.864C134.841 186.04 130.931 182.13 126.107 182.13C121.282 182.13 117.372 186.04 117.372 190.864C117.372 195.688 121.282 199.598 126.107 199.598ZM153.852 207.022L147.69 200.881C146.871 200.062 145.759 199.598 144.599 199.598H139.192C138.905 199.597 138.621 199.653 138.356 199.763C138.091 199.872 137.85 200.033 137.647 200.236C137.444 200.439 137.283 200.68 137.174 200.945C137.064 201.21 137.009 201.495 137.009 201.782L137.011 207.186C137.011 208.346 137.464 209.448 138.283 210.267L144.446 216.427C145.298 217.28 146.68 217.28 147.533 216.427L153.844 210.115C154.705 209.26 154.705 207.875 153.852 207.022ZM141.378 205.596C140.474 205.596 139.74 204.871 139.74 203.958C139.74 203.054 140.474 202.321 141.378 202.321C142.291 202.321 143.016 203.054 143.016 203.958C143.016 204.863 142.286 205.596 141.378 205.596Z" fill="#FFE600"/>
</g>
<path d="M187.926 189.252V192.184H178.625V198.648H185.876V201.58H178.625V211.165H175.03V189.252H187.926ZM190.059 202.4C190.059 200.655 190.416 199.11 191.131 197.765C191.866 196.419 192.854 195.379 194.094 194.643C195.356 193.887 196.743 193.508 198.256 193.508C199.623 193.508 200.81 193.782 201.819 194.328C202.849 194.854 203.669 195.516 204.278 196.314V193.792H207.904V211.165H204.278V208.579C203.669 209.399 202.839 210.082 201.788 210.629C200.737 211.175 199.538 211.448 198.193 211.448C196.701 211.448 195.335 211.07 194.094 210.313C192.854 209.536 191.866 208.464 191.131 207.097C190.416 205.71 190.059 204.144 190.059 202.4ZM204.278 202.463C204.278 201.264 204.026 200.224 203.522 199.341C203.038 198.458 202.397 197.786 201.598 197.323C200.8 196.861 199.938 196.63 199.013 196.63C198.088 196.63 197.226 196.861 196.428 197.323C195.629 197.765 194.977 198.427 194.473 199.31C193.989 200.171 193.748 201.201 193.748 202.4C193.748 203.598 193.989 204.649 194.473 205.552C194.977 206.456 195.629 207.15 196.428 207.633C197.247 208.096 198.109 208.327 199.013 208.327C199.938 208.327 200.8 208.096 201.598 207.633C202.397 207.171 203.038 206.498 203.522 205.616C204.026 204.712 204.278 203.661 204.278 202.463ZM218.931 211.448C217.565 211.448 216.335 211.207 215.242 210.723C214.17 210.219 213.319 209.546 212.688 208.705C212.058 207.844 211.721 206.887 211.679 205.836H215.4C215.463 206.572 215.81 207.192 216.44 207.696C217.092 208.18 217.901 208.422 218.868 208.422C219.877 208.422 220.655 208.232 221.201 207.854C221.769 207.455 222.053 206.95 222.053 206.341C222.053 205.689 221.737 205.206 221.107 204.89C220.497 204.575 219.52 204.228 218.174 203.85C216.871 203.493 215.81 203.146 214.99 202.809C214.17 202.473 213.456 201.958 212.846 201.264C212.257 200.571 211.963 199.656 211.963 198.521C211.963 197.597 212.236 196.756 212.783 195.999C213.329 195.221 214.107 194.612 215.116 194.17C216.146 193.729 217.323 193.508 218.647 193.508C220.623 193.508 222.21 194.013 223.408 195.022C224.627 196.01 225.279 197.365 225.363 199.089H221.769C221.706 198.311 221.39 197.691 220.823 197.229C220.255 196.766 219.488 196.535 218.521 196.535C217.575 196.535 216.85 196.714 216.346 197.071C215.841 197.428 215.589 197.901 215.589 198.49C215.589 198.952 215.757 199.341 216.093 199.656C216.43 199.972 216.84 200.224 217.323 200.413C217.807 200.581 218.521 200.802 219.467 201.075C220.728 201.412 221.758 201.758 222.557 202.116C223.377 202.452 224.081 202.957 224.669 203.629C225.258 204.302 225.563 205.195 225.584 206.309C225.584 207.297 225.311 208.18 224.764 208.958C224.218 209.735 223.44 210.345 222.431 210.786C221.443 211.228 220.276 211.448 218.931 211.448ZM233.661 196.724V206.341C233.661 206.992 233.808 207.465 234.102 207.76C234.418 208.033 234.943 208.169 235.679 208.169H237.886V211.165H235.048C233.43 211.165 232.19 210.786 231.328 210.03C230.466 209.273 230.035 208.043 230.035 206.341V196.724H227.986V193.792H230.035V189.473H233.661V193.792H237.886V196.724H233.661ZM240.001 202.4C240.001 200.655 240.358 199.11 241.073 197.765C241.808 196.419 242.796 195.379 244.036 194.643C245.298 193.887 246.685 193.508 248.198 193.508C249.564 193.508 250.752 193.782 251.761 194.328C252.791 194.854 253.611 195.516 254.22 196.314V193.792H257.846V211.165H254.22V208.579C253.611 209.399 252.78 210.082 251.729 210.629C250.679 211.175 249.48 211.448 248.135 211.448C246.643 211.448 245.276 211.07 244.036 210.313C242.796 209.536 241.808 208.464 241.073 207.097C240.358 205.71 240.001 204.144 240.001 202.4ZM254.22 202.463C254.22 201.264 253.968 200.224 253.464 199.341C252.98 198.458 252.339 197.786 251.54 197.323C250.742 196.861 249.88 196.63 248.955 196.63C248.03 196.63 247.168 196.861 246.369 197.323C245.571 197.765 244.919 198.427 244.415 199.31C243.931 200.171 243.69 201.201 243.69 202.4C243.69 203.598 243.931 204.649 244.415 205.552C244.919 206.456 245.571 207.15 246.369 207.633C247.189 208.096 248.051 208.327 248.955 208.327C249.88 208.327 250.742 208.096 251.54 207.633C252.339 207.171 252.98 206.498 253.464 205.616C253.968 204.712 254.22 203.661 254.22 202.463ZM269.567 193.508C270.912 193.508 272.1 193.782 273.13 194.328C274.18 194.854 275 195.516 275.589 196.314V193.792H279.215V211.448C279.215 213.046 278.878 214.465 278.206 215.705C277.533 216.966 276.556 217.954 275.274 218.669C274.012 219.383 272.499 219.741 270.733 219.741C268.379 219.741 266.424 219.184 264.869 218.07C263.313 216.977 262.431 215.484 262.22 213.592H265.783C266.056 214.496 266.634 215.221 267.517 215.768C268.421 216.335 269.493 216.619 270.733 216.619C272.184 216.619 273.35 216.178 274.233 215.295C275.137 214.412 275.589 213.13 275.589 211.448V208.548C274.979 209.368 274.149 210.061 273.098 210.629C272.068 211.175 270.891 211.448 269.567 211.448C268.053 211.448 266.666 211.07 265.405 210.313C264.165 209.536 263.177 208.464 262.441 207.097C261.726 205.71 261.369 204.144 261.369 202.4C261.369 200.655 261.726 199.11 262.441 197.765C263.177 196.419 264.165 195.379 265.405 194.643C266.666 193.887 268.053 193.508 269.567 193.508ZM275.589 202.463C275.589 201.264 275.337 200.224 274.832 199.341C274.349 198.458 273.708 197.786 272.909 197.323C272.11 196.861 271.248 196.63 270.323 196.63C269.399 196.63 268.537 196.861 267.738 197.323C266.939 197.765 266.288 198.427 265.783 199.31C265.3 200.171 265.058 201.201 265.058 202.4C265.058 203.598 265.3 204.649 265.783 205.552C266.288 206.456 266.939 207.15 267.738 207.633C268.558 208.096 269.42 208.327 270.323 208.327C271.248 208.327 272.11 208.096 272.909 207.633C273.708 207.171 274.349 206.498 274.832 205.616C275.337 204.712 275.589 203.661 275.589 202.463Z" fill="white"/>
<rect x="427.26" y="151.308" width="237.74" height="69.2154" rx="19.1506" fill="#4800E1"/>
<g clip-path="url(#clip1_29_304)">
<path d="M454.109 162.443C450.729 161.776 447.4 163.948 446.721 167.313C444.061 180.446 444.061 191.381 446.721 204.519C447.315 207.468 449.94 209.509 452.872 209.509C453.281 209.509 453.695 209.471 454.112 209.389C457.511 208.717 459.719 205.446 459.038 202.08C456.683 190.447 456.683 181.38 459.038 169.747C459.716 166.386 457.509 163.115 454.109 162.443ZM483.235 166.656H462.617C462.809 167.805 462.796 168.979 462.577 170.123C460.323 181.486 460.323 190.341 462.577 201.709C462.812 202.889 462.793 204.052 462.617 205.176H483.235C485.883 205.176 488.05 203.009 488.05 200.361V171.471C488.05 168.823 485.886 166.656 483.235 166.656ZM471.198 196.75C470.24 196.749 469.321 196.369 468.644 195.691C467.967 195.013 467.586 194.094 467.587 193.136C467.587 192.178 467.968 191.259 468.645 190.582C469.323 189.905 470.242 189.525 471.2 189.525C472.158 189.525 473.077 189.906 473.754 190.584C474.431 191.261 474.812 192.18 474.811 193.138C474.811 194.097 474.43 195.015 473.753 195.693C473.075 196.37 472.156 196.75 471.198 196.75ZM483.235 183.509H466.383V173.879H483.235V183.509Z" fill="#FFE600"/>
</g>
<path d="M515.766 195.297H523.537V198.339H511.996V175.358H515.766V195.297ZM525.433 189.147C525.433 187.317 525.807 185.697 526.557 184.286C527.328 182.875 528.365 181.784 529.665 181.012C530.988 180.218 532.443 179.822 534.03 179.822C535.463 179.822 536.709 180.108 537.767 180.681C538.847 181.233 539.707 181.927 540.346 182.765V180.119H544.149V198.339H540.346V195.628C539.707 196.488 538.836 197.204 537.734 197.777C536.631 198.35 535.375 198.637 533.964 198.637C532.399 198.637 530.966 198.24 529.665 197.447C528.365 196.631 527.328 195.507 526.557 194.074C525.807 192.619 525.433 190.976 525.433 189.147ZM540.346 189.213C540.346 187.956 540.081 186.865 539.552 185.939C539.045 185.013 538.373 184.308 537.535 183.823C536.698 183.338 535.794 183.095 534.824 183.095C533.854 183.095 532.95 183.338 532.112 183.823C531.275 184.286 530.591 184.98 530.062 185.906C529.555 186.81 529.301 187.89 529.301 189.147C529.301 190.403 529.555 191.505 530.062 192.453C530.591 193.401 531.275 194.129 532.112 194.636C532.972 195.121 533.876 195.363 534.824 195.363C535.794 195.363 536.698 195.121 537.535 194.636C538.373 194.151 539.045 193.445 539.552 192.52C540.081 191.572 540.346 190.469 540.346 189.213ZM558.293 179.822C559.726 179.822 561.004 180.119 562.129 180.714C563.275 181.31 564.168 182.191 564.807 183.36C565.446 184.528 565.766 185.939 565.766 187.592V198.339H562.029V188.155C562.029 186.523 561.622 185.278 560.806 184.418C559.99 183.536 558.877 183.095 557.466 183.095C556.055 183.095 554.931 183.536 554.093 184.418C553.278 185.278 552.87 186.523 552.87 188.155V198.339H549.1V180.119H552.87V182.202C553.487 181.453 554.27 180.869 555.217 180.45C556.187 180.031 557.213 179.822 558.293 179.822ZM569.318 189.147C569.318 187.317 569.693 185.697 570.442 184.286C571.214 182.875 572.25 181.784 573.55 181.012C574.873 180.218 576.339 179.822 577.948 179.822C579.139 179.822 580.307 180.086 581.454 180.615C582.622 181.122 583.548 181.806 584.231 182.665V173.87H588.034V198.339H584.231V195.595C583.614 196.477 582.754 197.204 581.652 197.777C580.572 198.35 579.326 198.637 577.915 198.637C576.328 198.637 574.873 198.24 573.55 197.447C572.25 196.631 571.214 195.507 570.442 194.074C569.693 192.619 569.318 190.976 569.318 189.147ZM584.231 189.213C584.231 187.956 583.967 186.865 583.438 185.939C582.931 185.013 582.258 184.308 581.421 183.823C580.583 183.338 579.679 183.095 578.709 183.095C577.739 183.095 576.835 183.338 575.997 183.823C575.16 184.286 574.476 184.98 573.947 185.906C573.44 186.81 573.187 187.89 573.187 189.147C573.187 190.403 573.44 191.505 573.947 192.453C574.476 193.401 575.16 194.129 575.997 194.636C576.857 195.121 577.761 195.363 578.709 195.363C579.679 195.363 580.583 195.121 581.421 194.636C582.258 194.151 582.931 193.445 583.438 192.52C583.967 191.572 584.231 190.469 584.231 189.213ZM596.755 173.87V198.339H592.985V173.87H596.755ZM603.622 177.705C602.939 177.705 602.366 177.474 601.903 177.011C601.44 176.548 601.208 175.975 601.208 175.291C601.208 174.608 601.44 174.035 601.903 173.572C602.366 173.109 602.939 172.878 603.622 172.878C604.283 172.878 604.846 173.109 605.309 173.572C605.772 174.035 606.003 174.608 606.003 175.291C606.003 175.975 605.772 176.548 605.309 177.011C604.846 177.474 604.283 177.705 603.622 177.705ZM605.474 180.119V198.339H601.704V180.119H605.474ZM619.616 179.822C621.049 179.822 622.327 180.119 623.452 180.714C624.598 181.31 625.491 182.191 626.13 183.36C626.769 184.528 627.089 185.939 627.089 187.592V198.339H623.352V188.155C623.352 186.523 622.945 185.278 622.129 184.418C621.313 183.536 620.2 183.095 618.789 183.095C617.378 183.095 616.254 183.536 615.416 184.418C614.601 185.278 614.193 186.523 614.193 188.155V198.339H610.423V180.119H614.193V182.202C614.81 181.453 615.593 180.869 616.541 180.45C617.511 180.031 618.536 179.822 619.616 179.822ZM648.597 188.783C648.597 189.466 648.552 190.084 648.464 190.635H634.543C634.653 192.09 635.193 193.258 636.163 194.14C637.133 195.022 638.324 195.462 639.735 195.462C641.763 195.462 643.196 194.614 644.033 192.916H648.101C647.549 194.592 646.546 195.97 645.091 197.05C643.659 198.108 641.873 198.637 639.735 198.637C637.993 198.637 636.428 198.251 635.039 197.48C633.672 196.686 632.592 195.584 631.798 194.173C631.027 192.74 630.641 191.087 630.641 189.213C630.641 187.339 631.016 185.697 631.765 184.286C632.537 182.853 633.606 181.751 634.973 180.979C636.362 180.207 637.949 179.822 639.735 179.822C641.454 179.822 642.986 180.196 644.331 180.946C645.676 181.695 646.723 182.754 647.472 184.12C648.222 185.465 648.597 187.019 648.597 188.783ZM644.662 187.592C644.64 186.204 644.143 185.09 643.174 184.253C642.204 183.415 641.002 182.996 639.569 182.996C638.269 182.996 637.155 183.415 636.229 184.253C635.303 185.068 634.752 186.182 634.576 187.592H644.662Z" fill="white"/>
<rect x="45.7705" y="246.278" width="309.836" height="81.2879" rx="22.4908" fill="#6D28FF"/>
<path d="M88.1818 289.279H82.2914V282.21H88.1818V276.32H95.2503V282.21H101.141V289.279H95.2503V295.169H88.1818V289.279ZM91.7161 263.361L72.8667 270.429V284.779C72.8667 296.677 80.9012 307.775 91.7161 310.484C102.531 307.775 110.565 296.677 110.565 284.779V270.429L91.7161 263.361ZM105.853 284.779C105.853 294.203 99.8449 302.921 91.7161 305.584C83.5873 302.921 77.579 294.227 77.579 284.779V273.705L91.7161 268.403L105.853 273.705V284.779Z" fill="#FFE600"/>
<path d="M149.713 274.069V301.059H145.286V274.069H149.713ZM166.322 279.312C168.005 279.312 169.506 279.661 170.827 280.36C172.173 281.059 173.222 282.095 173.972 283.467C174.723 284.839 175.099 286.496 175.099 288.438V301.059H170.71V289.098C170.71 287.182 170.231 285.719 169.273 284.71C168.315 283.674 167.008 283.156 165.351 283.156C163.694 283.156 162.374 283.674 161.39 284.71C160.432 285.719 159.953 287.182 159.953 289.098V301.059H155.526V279.661H159.953V282.108C160.678 281.228 161.597 280.541 162.71 280.05C163.849 279.558 165.053 279.312 166.322 279.312ZM188.513 301.409C186.83 301.409 185.315 301.111 183.969 300.516C182.649 299.894 181.6 299.066 180.823 298.03C180.047 296.969 179.632 295.791 179.581 294.496H184.163C184.241 295.402 184.668 296.166 185.445 296.787C186.247 297.383 187.244 297.681 188.435 297.681C189.678 297.681 190.636 297.448 191.309 296.982C192.008 296.49 192.357 295.868 192.357 295.117C192.357 294.315 191.969 293.719 191.192 293.331C190.442 292.943 189.238 292.516 187.581 292.05C185.976 291.609 184.668 291.182 183.658 290.768C182.649 290.354 181.768 289.719 181.018 288.865C180.293 288.011 179.93 286.884 179.93 285.486C179.93 284.347 180.267 283.312 180.94 282.38C181.613 281.422 182.571 280.671 183.814 280.127C185.082 279.584 186.532 279.312 188.163 279.312C190.597 279.312 192.552 279.933 194.027 281.176C195.529 282.393 196.331 284.062 196.435 286.185H192.008C191.93 285.228 191.542 284.464 190.843 283.894C190.144 283.325 189.199 283.04 188.008 283.04C186.843 283.04 185.95 283.26 185.328 283.7C184.707 284.14 184.396 284.723 184.396 285.448C184.396 286.017 184.603 286.496 185.018 286.884C185.432 287.273 185.937 287.583 186.532 287.817C187.128 288.024 188.008 288.295 189.173 288.632C190.726 289.046 191.995 289.473 192.979 289.914C193.988 290.328 194.856 290.949 195.581 291.778C196.306 292.606 196.681 293.706 196.707 295.079C196.707 296.295 196.37 297.383 195.697 298.341C195.024 299.299 194.066 300.049 192.823 300.593C191.607 301.137 190.17 301.409 188.513 301.409ZM220.869 279.661V301.059H216.442V298.535C215.743 299.415 214.824 300.114 213.685 300.632C212.571 301.124 211.381 301.37 210.112 301.37C208.429 301.37 206.914 301.02 205.568 300.321C204.248 299.622 203.199 298.587 202.423 297.215C201.672 295.842 201.296 294.185 201.296 292.244V279.661H205.685V291.583C205.685 293.499 206.164 294.975 207.122 296.011C208.08 297.02 209.387 297.525 211.044 297.525C212.701 297.525 214.008 297.02 214.966 296.011C215.95 294.975 216.442 293.499 216.442 291.583V279.661H220.869ZM231.138 282.768C231.785 281.681 232.639 280.839 233.701 280.244C234.788 279.622 236.07 279.312 237.545 279.312V283.894H236.419C234.685 283.894 233.364 284.334 232.458 285.215C231.578 286.095 231.138 287.622 231.138 289.797V301.059H226.71V279.661H231.138V282.768ZM240.139 290.263C240.139 288.114 240.579 286.211 241.46 284.554C242.366 282.897 243.583 281.616 245.11 280.71C246.663 279.778 248.372 279.312 250.236 279.312C251.919 279.312 253.382 279.648 254.625 280.321C255.893 280.969 256.903 281.784 257.654 282.768V279.661H262.12V301.059H257.654V297.875C256.903 298.884 255.88 299.726 254.586 300.399C253.291 301.072 251.816 301.409 250.159 301.409C248.32 301.409 246.638 300.943 245.11 300.011C243.583 299.053 242.366 297.732 241.46 296.05C240.579 294.341 240.139 292.412 240.139 290.263ZM257.654 290.341C257.654 288.865 257.343 287.583 256.722 286.496C256.126 285.409 255.337 284.58 254.353 284.011C253.369 283.441 252.307 283.156 251.168 283.156C250.029 283.156 248.968 283.441 247.984 284.011C247 284.554 246.197 285.37 245.576 286.457C244.981 287.519 244.683 288.787 244.683 290.263C244.683 291.739 244.981 293.033 245.576 294.147C246.197 295.26 247 296.114 247.984 296.71C248.994 297.279 250.055 297.564 251.168 297.564C252.307 297.564 253.369 297.279 254.353 296.71C255.337 296.14 256.126 295.312 256.722 294.224C257.343 293.111 257.654 291.816 257.654 290.341ZM278.731 279.312C280.414 279.312 281.915 279.661 283.236 280.36C284.582 281.059 285.63 282.095 286.381 283.467C287.132 284.839 287.507 286.496 287.507 288.438V301.059H283.119V289.098C283.119 287.182 282.64 285.719 281.682 284.71C280.724 283.674 279.417 283.156 277.76 283.156C276.103 283.156 274.783 283.674 273.799 284.71C272.841 285.719 272.362 287.182 272.362 289.098V301.059H267.935V279.661H272.362V282.108C273.087 281.228 274.006 280.541 275.119 280.05C276.258 279.558 277.462 279.312 278.731 279.312ZM291.679 290.341C291.679 288.14 292.119 286.211 292.999 284.554C293.905 282.872 295.148 281.577 296.727 280.671C298.307 279.765 300.119 279.312 302.164 279.312C304.753 279.312 306.889 279.933 308.572 281.176C310.281 282.393 311.433 284.14 312.028 286.418H307.252C306.863 285.357 306.242 284.528 305.388 283.933C304.533 283.338 303.459 283.04 302.164 283.04C300.352 283.04 298.902 283.687 297.815 284.982C296.753 286.25 296.223 288.037 296.223 290.341C296.223 292.645 296.753 294.444 297.815 295.739C298.902 297.033 300.352 297.681 302.164 297.681C304.727 297.681 306.423 296.554 307.252 294.302H312.028C311.407 296.477 310.242 298.211 308.533 299.506C306.824 300.774 304.701 301.409 302.164 301.409C300.119 301.409 298.307 300.956 296.727 300.049C295.148 299.117 293.905 297.823 292.999 296.166C292.119 294.483 291.679 292.541 291.679 290.341ZM336.052 289.836C336.052 290.639 336 291.363 335.897 292.011H319.547C319.677 293.719 320.311 295.092 321.45 296.127C322.589 297.163 323.987 297.681 325.644 297.681C328.026 297.681 329.709 296.684 330.693 294.69H335.469C334.822 296.658 333.644 298.276 331.935 299.545C330.253 300.787 328.156 301.409 325.644 301.409C323.599 301.409 321.761 300.956 320.13 300.049C318.524 299.117 317.256 297.823 316.324 296.166C315.418 294.483 314.965 292.541 314.965 290.341C314.965 288.14 315.405 286.211 316.285 284.554C317.191 282.872 318.447 281.577 320.052 280.671C321.683 279.765 323.547 279.312 325.644 279.312C327.664 279.312 329.463 279.752 331.042 280.632C332.622 281.512 333.851 282.755 334.732 284.36C335.612 285.939 336.052 287.765 336.052 289.836ZM331.431 288.438C331.405 286.807 330.822 285.499 329.683 284.516C328.544 283.532 327.133 283.04 325.45 283.04C323.923 283.04 322.615 283.532 321.528 284.516C320.44 285.473 319.793 286.781 319.586 288.438H331.431Z" fill="white"/>
<rect x="364.483" y="83.7025" width="208.048" height="46.7949" rx="12.0725" fill="#4800E1"/>
<path d="M378.949 109.234H381.794V111.368H383.929V104.254C383.929 103.472 383.288 102.831 382.506 102.831H378.237C377.455 102.831 376.814 103.472 376.814 104.254V111.368H378.949V109.234ZM378.949 104.966H381.794V107.1H378.949V104.966ZM398.157 104.966H399.58V109.945H401.714V104.951H403.137V111.368H405.271V104.254C405.271 103.472 404.631 102.831 403.848 102.831H397.445C396.663 102.831 396.022 103.472 396.022 104.254V111.368H398.157V104.966ZM388.553 111.368H390.687V104.966H393.888V102.831H385.351V104.966H388.553V111.368Z" fill="#FFE600"/>
<path d="M430.429 111.647H424.363L423.321 114.607H420.84L426.031 100.099H428.782L433.973 114.607H431.471L430.429 111.647ZM429.762 109.708L427.406 102.975L425.03 109.708H429.762ZM435.437 108.812C435.437 107.659 435.674 106.637 436.146 105.748C436.633 104.858 437.286 104.17 438.106 103.684C438.94 103.184 439.857 102.934 440.857 102.934C441.761 102.934 442.546 103.114 443.213 103.476C443.894 103.823 444.436 104.261 444.839 104.789V103.121H447.236V114.607H444.839V112.898C444.436 113.44 443.887 113.891 443.192 114.253C442.497 114.614 441.705 114.795 440.816 114.795C439.829 114.795 438.926 114.545 438.106 114.044C437.286 113.53 436.633 112.821 436.146 111.918C435.674 111.001 435.437 109.965 435.437 108.812ZM444.839 108.854C444.839 108.062 444.672 107.374 444.338 106.79C444.019 106.206 443.595 105.762 443.067 105.456C442.539 105.15 441.969 104.997 441.358 104.997C440.746 104.997 440.176 105.15 439.648 105.456C439.12 105.748 438.689 106.185 438.356 106.769C438.036 107.339 437.876 108.02 437.876 108.812C437.876 109.604 438.036 110.299 438.356 110.897C438.689 111.494 439.12 111.953 439.648 112.272C440.19 112.578 440.76 112.731 441.358 112.731C441.969 112.731 442.539 112.578 443.067 112.272C443.595 111.967 444.019 111.522 444.338 110.938C444.672 110.341 444.839 109.646 444.839 108.854ZM449.565 108.812C449.565 107.659 449.801 106.637 450.274 105.748C450.76 104.858 451.413 104.17 452.233 103.684C453.067 103.184 453.991 102.934 455.006 102.934C455.756 102.934 456.493 103.1 457.215 103.434C457.952 103.754 458.536 104.184 458.966 104.726V99.1814H461.364V114.607H458.966V112.877C458.577 113.433 458.035 113.891 457.341 114.253C456.66 114.614 455.874 114.795 454.985 114.795C453.984 114.795 453.067 114.545 452.233 114.044C451.413 113.53 450.76 112.821 450.274 111.918C449.801 111.001 449.565 109.965 449.565 108.812ZM458.966 108.854C458.966 108.062 458.8 107.374 458.466 106.79C458.147 106.206 457.723 105.762 457.195 105.456C456.667 105.15 456.097 104.997 455.485 104.997C454.874 104.997 454.304 105.15 453.776 105.456C453.248 105.748 452.817 106.185 452.484 106.769C452.164 107.339 452.004 108.02 452.004 108.812C452.004 109.604 452.164 110.299 452.484 110.897C452.817 111.494 453.248 111.953 453.776 112.272C454.318 112.578 454.888 112.731 455.485 112.731C456.097 112.731 456.667 112.578 457.195 112.272C457.723 111.967 458.147 111.522 458.466 110.938C458.8 110.341 458.966 109.646 458.966 108.854ZM470.426 102.934C471.301 102.934 472.08 103.121 472.761 103.496C473.456 103.872 473.997 104.428 474.387 105.164C474.79 105.901 474.991 106.79 474.991 107.832V114.607H472.636V108.187C472.636 107.158 472.378 106.373 471.864 105.831C471.35 105.275 470.648 104.997 469.759 104.997C468.87 104.997 468.161 105.275 467.633 105.831C467.118 106.373 466.861 107.158 466.861 108.187V114.607H464.485V99.1814H466.861V104.455C467.264 103.969 467.772 103.594 468.383 103.33C469.008 103.066 469.689 102.934 470.426 102.934ZM477.23 108.812C477.23 107.659 477.466 106.637 477.939 105.748C478.425 104.858 479.079 104.17 479.898 103.684C480.732 103.184 481.649 102.934 482.65 102.934C483.553 102.934 484.339 103.114 485.006 103.476C485.687 103.823 486.229 104.261 486.632 104.789V103.121H489.029V114.607H486.632V112.898C486.229 113.44 485.68 113.891 484.985 114.253C484.29 114.614 483.498 114.795 482.608 114.795C481.622 114.795 480.718 114.545 479.898 114.044C479.079 113.53 478.425 112.821 477.939 111.918C477.466 111.001 477.23 109.965 477.23 108.812ZM486.632 108.854C486.632 108.062 486.465 107.374 486.131 106.79C485.812 106.206 485.388 105.762 484.86 105.456C484.332 105.15 483.762 104.997 483.15 104.997C482.539 104.997 481.969 105.15 481.441 105.456C480.913 105.748 480.482 106.185 480.149 106.769C479.829 107.339 479.669 108.02 479.669 108.812C479.669 109.604 479.829 110.299 480.149 110.897C480.482 111.494 480.913 111.953 481.441 112.272C481.983 112.578 482.553 112.731 483.15 112.731C483.762 112.731 484.332 112.578 484.86 112.272C485.388 111.967 485.812 111.522 486.131 110.938C486.465 110.341 486.632 109.646 486.632 108.854ZM491.358 108.812C491.358 107.659 491.594 106.637 492.067 105.748C492.553 104.858 493.206 104.17 494.026 103.684C494.86 103.184 495.777 102.934 496.778 102.934C497.681 102.934 498.466 103.114 499.133 103.476C499.814 103.823 500.356 104.261 500.759 104.789V103.121H503.156V114.607H500.759V112.898C500.356 113.44 499.807 113.891 499.112 114.253C498.418 114.614 497.625 114.795 496.736 114.795C495.749 114.795 494.846 114.545 494.026 114.044C493.206 113.53 492.553 112.821 492.067 111.918C491.594 111.001 491.358 109.965 491.358 108.812ZM500.759 108.854C500.759 108.062 500.592 107.374 500.259 106.79C499.939 106.206 499.515 105.762 498.987 105.456C498.459 105.15 497.89 104.997 497.278 104.997C496.667 104.997 496.097 105.15 495.569 105.456C495.041 105.748 494.61 106.185 494.276 106.769C493.957 107.339 493.797 108.02 493.797 108.812C493.797 109.604 493.957 110.299 494.276 110.897C494.61 111.494 495.041 111.953 495.569 112.272C496.111 112.578 496.68 112.731 497.278 112.731C497.89 112.731 498.459 112.578 498.987 112.272C499.515 111.967 499.939 111.522 500.259 110.938C500.592 110.341 500.759 109.646 500.759 108.854ZM508.654 104.789C509.002 104.205 509.46 103.754 510.03 103.434C510.614 103.1 511.302 102.934 512.094 102.934V105.393H511.489C510.558 105.393 509.849 105.63 509.363 106.102C508.89 106.575 508.654 107.395 508.654 108.562V114.607H506.278V103.121H508.654V104.789ZM528.427 111.647H522.361L521.319 114.607H518.838L524.029 100.099H526.78L531.971 114.607H529.47L528.427 111.647ZM527.76 109.708L525.405 102.975L523.028 109.708H527.76ZM543.587 100.119V102.058H539.731V114.607H537.355V102.058H533.477V100.119H543.587ZM561.253 100.119V114.607H558.877V104.685L554.457 114.607H552.811L548.371 104.685V114.607H545.994V100.119H548.558L553.644 111.48L558.71 100.119H561.253Z" fill="white"/>
<rect x="312.169" y="232.94" width="149.238" height="43.6331" rx="12.0725" transform="rotate(-90 312.169 232.94)" fill="#4800E1"/>
<path d="M330.191 203.219L344.103 203.219C344.774 203.219 345.418 203.485 345.892 203.96C346.366 204.434 346.633 205.078 346.633 205.748L346.633 210.807C346.633 211.478 346.366 212.122 345.892 212.596C345.418 213.07 344.774 213.337 344.103 213.337L330.191 213.337C327.839 213.337 325.853 211.731 325.297 209.543L323.868 209.543L323.868 212.072L321.338 212.072L321.338 204.484L323.868 204.484L323.868 207.013L325.297 207.013C325.853 204.825 327.839 203.219 330.191 203.219Z" fill="#FFE600"/>
<path d="M331.175 169.038C330.452 169.413 329.91 169.934 329.549 170.601C329.173 171.268 328.986 172.039 328.986 172.915C328.986 173.874 329.201 174.729 329.632 175.479C330.063 176.229 330.674 176.82 331.466 177.251C332.259 177.668 333.176 177.876 334.218 177.876C335.26 177.876 336.185 177.668 336.991 177.251C337.783 176.82 338.394 176.229 338.825 175.479C339.256 174.729 339.471 173.874 339.471 172.915C339.471 171.623 339.11 170.573 338.387 169.767C337.665 168.961 336.685 168.468 335.448 168.287L335.448 173.728L333.551 173.728L333.551 165.744L335.406 165.744C336.532 165.897 337.567 166.3 338.512 166.953C339.457 167.592 340.215 168.433 340.784 169.475C341.34 170.504 341.618 171.65 341.618 172.915C341.618 174.277 341.306 175.521 340.68 176.646C340.041 177.772 339.158 178.668 338.033 179.335C336.907 179.989 335.636 180.315 334.218 180.315C332.801 180.315 331.529 179.989 330.403 179.335C329.278 178.668 328.402 177.772 327.777 176.646C327.138 175.507 326.818 174.263 326.818 172.915C326.818 171.372 327.2 170.004 327.964 168.808C328.715 167.599 329.785 166.724 331.175 166.182L331.175 169.038ZM335.698 164.192C334.545 164.192 333.523 163.956 332.634 163.484C331.744 162.997 331.057 162.344 330.57 161.524C330.07 160.69 329.82 159.773 329.82 158.773C329.82 157.869 330 157.084 330.362 156.417C330.709 155.736 331.147 155.194 331.675 154.791L330.007 154.791L330.007 152.394L341.493 152.394L341.493 154.791L339.784 154.791C340.326 155.194 340.777 155.743 341.139 156.438C341.5 157.133 341.681 157.925 341.681 158.814C341.681 159.801 341.431 160.704 340.93 161.524C340.416 162.344 339.707 162.997 338.804 163.484C337.887 163.956 336.852 164.192 335.698 164.192ZM335.74 154.791C334.948 154.791 334.26 154.958 333.676 155.291C333.092 155.611 332.648 156.035 332.342 156.563C332.036 157.091 331.883 157.661 331.883 158.272C331.883 158.884 332.036 159.454 332.342 159.982C332.634 160.51 333.072 160.941 333.655 161.274C334.225 161.594 334.906 161.754 335.698 161.754C336.49 161.754 337.185 161.594 337.783 161.274C338.38 160.941 338.839 160.51 339.158 159.982C339.464 159.44 339.617 158.87 339.617 158.272C339.617 157.661 339.464 157.091 339.158 156.563C338.853 156.035 338.408 155.611 337.824 155.291C337.227 154.958 336.532 154.791 335.74 154.791ZM341.681 145.104C341.681 146.007 341.521 146.82 341.201 147.542C340.868 148.251 340.423 148.814 339.867 149.231C339.297 149.648 338.665 149.87 337.97 149.898L337.97 147.438C338.457 147.397 338.867 147.167 339.2 146.75C339.52 146.32 339.68 145.784 339.68 145.145C339.68 144.478 339.555 143.964 339.304 143.603C339.04 143.227 338.707 143.04 338.304 143.04C337.873 143.04 337.553 143.248 337.345 143.665C337.136 144.068 336.907 144.714 336.657 145.604C336.421 146.465 336.191 147.167 335.969 147.709C335.747 148.251 335.406 148.724 334.948 149.127C334.489 149.516 333.885 149.71 333.134 149.71C332.523 149.71 331.967 149.53 331.466 149.168C330.952 148.807 330.549 148.293 330.257 147.626C329.966 146.945 329.82 146.167 329.82 145.291C329.82 143.985 330.153 142.936 330.82 142.143C331.473 141.337 332.37 140.907 333.509 140.851L333.509 143.227C332.995 143.269 332.585 143.478 332.279 143.853C331.974 144.228 331.821 144.735 331.821 145.375C331.821 146 331.939 146.479 332.175 146.813C332.411 147.146 332.724 147.313 333.113 147.313C333.419 147.313 333.676 147.202 333.885 146.98C334.093 146.757 334.26 146.486 334.385 146.167C334.496 145.847 334.642 145.375 334.823 144.749C335.045 143.915 335.274 143.234 335.511 142.706C335.733 142.164 336.066 141.699 336.511 141.31C336.956 140.921 337.546 140.719 338.283 140.705C338.936 140.705 339.52 140.886 340.034 141.247C340.548 141.608 340.951 142.123 341.243 142.79C341.535 143.443 341.681 144.214 341.681 145.104ZM334.051 124.968C334.19 124.19 334.6 123.53 335.281 122.988C335.962 122.446 336.733 122.175 337.595 122.175C338.332 122.175 338.999 122.369 339.596 122.758C340.18 123.134 340.645 123.682 340.993 124.405C341.326 125.128 341.493 125.969 341.493 126.927L341.493 132.722L327.006 132.722L327.006 127.198C327.006 126.212 327.172 125.364 327.506 124.655C327.839 123.946 328.291 123.411 328.861 123.05C329.417 122.689 330.042 122.508 330.737 122.508C331.571 122.508 332.266 122.731 332.821 123.175C333.377 123.62 333.787 124.217 334.051 124.968ZM333.092 130.346L333.092 127.407C333.092 126.629 332.919 126.024 332.571 125.593C332.21 125.149 331.696 124.926 331.029 124.926C330.376 124.926 329.868 125.149 329.507 125.593C329.132 126.024 328.944 126.629 328.944 127.407L328.944 130.346L333.092 130.346ZM339.555 127.136C339.555 126.33 339.36 125.698 338.971 125.239C338.582 124.78 338.04 124.551 337.345 124.551C336.636 124.551 336.073 124.794 335.656 125.281C335.24 125.767 335.031 126.413 335.031 127.219L335.031 130.346L339.555 130.346L339.555 127.136ZM328.486 118.383C328.486 118.814 328.34 119.175 328.048 119.467C327.756 119.759 327.395 119.905 326.964 119.905C326.533 119.905 326.172 119.759 325.88 119.467C325.588 119.175 325.442 118.814 325.442 118.383C325.442 117.966 325.588 117.612 325.88 117.32C326.172 117.028 326.533 116.882 326.964 116.882C327.395 116.882 327.756 117.028 328.048 117.32C328.34 117.612 328.486 117.966 328.486 118.383ZM330.007 117.216L341.493 117.216L341.493 119.592L330.007 119.592L330.007 117.216ZM326.068 111.719L341.493 111.719L341.493 114.096L326.068 114.096L326.068 111.719ZM326.067 106.223L341.493 106.223L341.493 108.599L326.067 108.599L326.067 106.223ZM341.681 98.934C341.681 99.8373 341.521 100.65 341.201 101.373C340.868 102.082 340.423 102.645 339.867 103.061C339.297 103.478 338.665 103.701 337.97 103.728L337.97 101.269C338.457 101.227 338.867 100.998 339.2 100.581C339.52 100.15 339.68 99.615 339.68 98.9757C339.68 98.3087 339.555 97.7945 339.304 97.4332C339.04 97.0579 338.707 96.8703 338.304 96.8703C337.873 96.8703 337.553 97.0788 337.345 97.4957C337.136 97.8987 336.907 98.5449 336.657 99.4343C336.421 100.296 336.191 100.998 335.969 101.54C335.747 102.082 335.406 102.554 334.948 102.957C334.489 103.346 333.885 103.541 333.134 103.541C332.523 103.541 331.967 103.36 331.466 102.999C330.952 102.638 330.549 102.123 330.257 101.456C329.966 100.775 329.82 99.9972 329.82 99.1216C329.82 97.8153 330.153 96.7661 330.82 95.974C331.473 95.1679 332.37 94.7371 333.509 94.6816L333.509 97.0579C332.995 97.0996 332.585 97.3081 332.279 97.6833C331.974 98.0585 331.821 98.5658 331.821 99.205C331.821 99.8304 331.939 100.31 332.175 100.643C332.411 100.977 332.724 101.144 333.113 101.144C333.419 101.144 333.676 101.032 333.885 100.81C334.093 100.588 334.26 100.317 334.385 99.9972C334.496 99.6775 334.642 99.205 334.823 98.5797C335.045 97.7458 335.274 97.0649 335.511 96.5368C335.733 95.9948 336.066 95.5293 336.511 95.1402C336.956 94.751 337.546 94.5495 338.283 94.5356C338.936 94.5356 339.52 94.7163 340.034 95.0776C340.548 95.4389 340.951 95.9531 341.243 96.6202C341.535 97.2733 341.681 98.0446 341.681 98.934Z" fill="white"/>
<rect x="419.212" y="151.308" width="172.368" height="49.7439" rx="13.68" transform="rotate(90 419.212 151.308)" fill="#6D28FF"/>
<path d="M403.118 188.391L403.118 183.139L406.468 186.503C406.604 186.64 406.766 186.748 406.944 186.822C407.123 186.896 407.314 186.934 407.507 186.934C407.7 186.934 407.891 186.896 408.069 186.822C408.247 186.748 408.409 186.64 408.545 186.503C408.682 186.367 408.79 186.205 408.864 186.027C408.938 185.849 408.976 185.658 408.976 185.465C408.976 185.075 408.821 184.702 408.545 184.426L403.717 179.613L408.545 174.8C408.682 174.663 408.79 174.501 408.864 174.323C408.938 174.145 408.976 173.954 408.976 173.761C408.976 173.568 408.938 173.377 408.864 173.199C408.79 173.02 408.682 172.858 408.545 172.722C408.27 172.447 407.896 172.292 407.507 172.292C407.314 172.292 407.123 172.33 406.944 172.404C406.766 172.477 406.604 172.586 406.468 172.722L403.118 176.087L403.118 170.835C403.118 169.671 402.655 168.554 401.832 167.731C401.009 166.908 399.893 166.446 398.729 166.446L384.099 166.446C382.935 166.446 381.818 166.908 380.995 167.731C380.172 168.554 379.71 169.671 379.71 170.835L379.71 188.391C379.71 189.555 380.172 190.671 380.995 191.494C381.818 192.317 382.935 192.78 384.099 192.78L398.729 192.78C399.893 192.78 401.009 192.317 401.832 191.494C402.655 190.671 403.118 189.555 403.118 188.391ZM384.099 189.854C383.711 189.854 383.339 189.7 383.064 189.425C382.79 189.151 382.636 188.779 382.636 188.391L382.636 170.835C382.636 170.447 382.79 170.075 383.064 169.8C383.339 169.526 383.711 169.372 384.099 169.372L398.729 169.372C399.117 169.372 399.489 169.526 399.763 169.8C400.037 170.075 400.192 170.447 400.192 170.835L400.192 188.391C400.192 188.779 400.037 189.151 399.763 189.425C399.489 189.7 399.117 189.854 398.729 189.854L384.099 189.854Z" fill="#FFE600"/>
<path d="M402.257 217.917C402.257 219.665 401.918 221.193 401.241 222.5C400.58 223.822 399.619 224.838 398.359 225.547C397.115 226.271 395.658 226.633 393.989 226.633C392.32 226.633 390.871 226.271 389.643 225.547C388.415 224.838 387.47 223.822 386.808 222.5C386.163 221.193 385.84 219.665 385.84 217.917L385.84 212.555L402.257 212.555L402.257 217.917ZM388.037 217.917C388.037 219.838 388.556 221.311 389.596 222.334C390.635 223.358 392.099 223.87 393.989 223.87C395.895 223.87 397.383 223.358 398.454 222.334C399.524 221.311 400.06 219.838 400.06 217.917L400.06 215.248L388.037 215.248L388.037 217.917ZM402.257 239.908L400.06 239.908L400.06 235.538L385.84 235.538L385.84 232.845L400.06 232.845L400.06 228.452L402.257 228.452L402.257 239.908ZM402.257 255.745L385.84 255.745L385.84 253.052L393.021 253.052L393.021 245.328L385.84 245.328L385.84 242.635L402.257 242.635L402.257 245.328L395.217 245.328L395.217 253.052L402.257 253.052L402.257 255.745ZM394.273 274.213C394.115 275.095 393.651 275.843 392.879 276.457C392.107 277.071 391.233 277.378 390.257 277.378C389.422 277.378 388.667 277.158 387.989 276.717C387.328 276.292 386.8 275.67 386.407 274.851C386.029 274.032 385.84 273.079 385.84 271.993L385.84 265.426L402.257 265.426L402.257 271.686C402.257 272.804 402.068 273.764 401.69 274.568C401.312 275.371 400.8 275.977 400.154 276.386C399.524 276.796 398.816 277.001 398.028 277.001C397.084 277.001 396.296 276.749 395.666 276.245C395.036 275.741 394.572 275.064 394.273 274.213ZM395.359 268.119L395.359 271.45C395.359 272.331 395.556 273.016 395.95 273.505C396.359 274.009 396.942 274.26 397.698 274.26C398.438 274.26 399.013 274.009 399.422 273.505C399.847 273.016 400.06 272.331 400.06 271.45L400.06 268.119L395.359 268.119ZM388.037 271.757C388.037 272.67 388.257 273.386 388.698 273.906C389.139 274.426 389.753 274.686 390.54 274.686C391.344 274.686 391.981 274.41 392.454 273.859C392.926 273.308 393.162 272.575 393.162 271.662L393.162 268.119L388.037 268.119L388.037 271.757ZM400.58 281.675C400.58 281.187 400.745 280.777 401.076 280.446C401.406 280.116 401.816 279.95 402.304 279.95C402.792 279.95 403.201 280.116 403.532 280.446C403.863 280.777 404.028 281.187 404.028 281.675C404.028 282.147 403.863 282.549 403.532 282.879C403.201 283.21 402.792 283.376 402.304 283.376C401.816 283.376 401.406 283.21 401.076 282.879C400.745 282.549 400.58 282.147 400.58 281.675ZM398.855 282.998L385.84 282.998L385.84 280.305L398.855 280.305L398.855 282.998ZM403.32 289.226L385.84 289.226L385.84 286.533L403.32 286.533L403.32 289.226ZM403.32 295.454L385.84 295.454L385.84 292.761L403.32 292.761L403.32 295.454ZM385.627 303.714C385.627 302.69 385.808 301.769 386.171 300.95C386.548 300.147 387.052 299.509 387.682 299.037C388.328 298.564 389.044 298.312 389.832 298.281L389.832 301.068C389.281 301.115 388.816 301.375 388.438 301.848C388.076 302.336 387.895 302.942 387.895 303.667C387.895 304.422 388.037 305.005 388.32 305.415C388.619 305.84 388.997 306.052 389.454 306.052C389.942 306.052 390.304 305.816 390.54 305.344C390.777 304.887 391.037 304.155 391.32 303.147C391.588 302.171 391.848 301.375 392.099 300.761C392.351 300.147 392.737 299.612 393.257 299.155C393.777 298.714 394.462 298.494 395.312 298.494C396.005 298.494 396.635 298.698 397.202 299.108C397.784 299.517 398.241 300.1 398.572 300.856C398.902 301.627 399.068 302.509 399.068 303.501C399.068 304.981 398.69 306.17 397.934 307.068C397.194 307.981 396.178 308.47 394.887 308.533L394.887 305.84C395.469 305.792 395.934 305.556 396.28 305.131C396.627 304.706 396.8 304.131 396.8 303.407C396.8 302.698 396.666 302.155 396.399 301.777C396.131 301.399 395.777 301.21 395.336 301.21C394.989 301.21 394.698 301.336 394.462 301.588C394.225 301.84 394.036 302.147 393.895 302.509C393.769 302.871 393.603 303.407 393.399 304.115C393.147 305.06 392.887 305.832 392.619 306.43C392.367 307.044 391.989 307.572 391.485 308.013C390.981 308.454 390.312 308.682 389.478 308.698C388.737 308.698 388.076 308.493 387.493 308.084C386.911 307.674 386.454 307.092 386.123 306.336C385.793 305.596 385.627 304.722 385.627 303.714Z" fill="white"/>
<defs>
<clipPath id="clip0_29_304">
<rect width="43.6712" height="34.937" fill="white" transform="translate(110.822 182.13)"/>
</clipPath>
<clipPath id="clip1_29_304">
<rect width="48.1499" height="48.1499" fill="white" transform="translate(442.307 161.841)"/>
</clipPath>
</defs>
</svg>
